<svg xmlns="http://www.w3.org/2000/svg" width="46" height="20" viewBox="0 0 46 20">
  <defs>
    <style>
      .cls-1 {
        fill: #74eb8b;
      }

      .cls-2 {
        fill: #6255f6;
        fill-rule: evenodd;
      }
    </style>
  </defs>
  <rect id="box" class="cls-1" width="46" height="20" rx="10" ry="10"/>
  <path id="new" class="cls-2" d="M10.428,13.064V9.152L13.9,13.484a2.025,2.025,0,0,0,.5.48,1.227,1.227,0,0,0,.643.144,0.827,0.827,0,0,0,.65-0.27,1.051,1.051,0,0,0,.241-0.726V6.464A1.058,1.058,0,0,0,15.679,5.7a1.01,1.01,0,0,0-.764-0.27,0.908,0.908,0,0,0-1.022,1.032v3.924L10.416,6.056a2.566,2.566,0,0,0-.487-0.48,1.048,1.048,0,0,0-.6-0.144,0.912,0.912,0,0,0-.7.282,1.14,1.14,0,0,0-.265.81v6.54a0.919,0.919,0,0,0,1.034,1.044,0.913,0.913,0,0,0,1.022-1.044h0ZM22.722,14a0.759,0.759,0,0,0,.866-0.852,0.759,0.759,0,0,0-.866-0.852H19.606v-1.74h2.851A0.759,0.759,0,0,0,23.323,9.7a0.759,0.759,0,0,0-.866-0.852H19.606V7.244h3.115a0.765,0.765,0,0,0,.866-0.864,0.754,0.754,0,0,0-.866-0.84H18.644a1.014,1.014,0,0,0-1.155,1.14v6.18A1.014,1.014,0,0,0,18.644,14h4.078Zm6.195-.1a1.487,1.487,0,0,0,.433-0.642l1.576-4.344,1.552,4.332a1.357,1.357,0,0,0,.433.654,1.162,1.162,0,0,0,.722.21,1.137,1.137,0,0,0,.716-0.21,1.382,1.382,0,0,0,.427-0.642l2.37-6.528a0.984,0.984,0,0,0-.06-0.918,0.9,0.9,0,0,0-.806-0.378,1.035,1.035,0,0,0-.692.21A1.411,1.411,0,0,0,35.2,6.3l-1.6,4.656L32.032,6.308a1.525,1.525,0,0,0-.4-0.666A0.936,0.936,0,0,0,31,5.432a0.977,0.977,0,0,0-.655.21,1.575,1.575,0,0,0-.415.654l-1.636,4.56L26.775,6.3a1.412,1.412,0,0,0-.391-0.654,1.307,1.307,0,0,0-1.63.168,0.94,0.94,0,0,0-.06.918l2.346,6.516a1.358,1.358,0,0,0,.433.654,1.163,1.163,0,0,0,.722.21A1.132,1.132,0,0,0,28.916,13.9Z"/>
</svg>
