<svg xmlns="http://www.w3.org/2000/svg" width="39" height="20" viewBox="0 0 39 20">
  <defs>
    <style>
      .cls-1 {
        fill: #fcde45;
      }

      .cls-2 {
        fill: #6255f6;
        fill-rule: evenodd;
      }
    </style>
  </defs>
  <rect id="box" class="cls-1" width="39" height="20" rx="10" ry="10"/>
  <path id="PRE" class="cls-2" d="M10.3,13.82a1.134,1.134,0,0,0,.283-0.828V11.084h1.864a3.14,3.14,0,0,0,2.231-.738,2.651,2.651,0,0,0,.788-2.034,2.651,2.651,0,0,0-.788-2.034,3.14,3.14,0,0,0-2.231-.738H9.49a1.125,1.125,0,0,0-.83.288,1.119,1.119,0,0,0-.289.828v6.336a1.119,1.119,0,0,0,.289.828,1.108,1.108,0,0,0,.818.288A1.1,1.1,0,0,0,10.3,13.82Zm0.283-6.588h1.479a1.062,1.062,0,0,1,1.3,1.08,1.062,1.062,0,0,1-1.3,1.08H10.585V7.232Zm7.849,6.588a1.134,1.134,0,0,0,.283-0.828V10.844h0.662a1.216,1.216,0,0,1,.511.1,0.81,0.81,0,0,1,.367.366l1.095,2a1.59,1.59,0,0,0,.523.606,1.412,1.412,0,0,0,.764.186,1.052,1.052,0,0,0,.71-0.21,0.736,0.736,0,0,0,.259-0.534,1.3,1.3,0,0,0-.174-0.684l-0.6-1.08a1.756,1.756,0,0,0-1.082-.924,2.474,2.474,0,0,0,1.377-.894,2.6,2.6,0,0,0,.475-1.59,2.477,2.477,0,0,0-.788-1.95,3.243,3.243,0,0,0-2.231-.7H17.621a1.125,1.125,0,0,0-.83.288,1.119,1.119,0,0,0-.289.828v6.336a1.119,1.119,0,0,0,.289.828A1.314,1.314,0,0,0,18.433,13.82Zm0.283-6.588h1.467q1.311,0,1.311,1.02T20.183,9.284H18.716V7.232ZM30.227,14a0.759,0.759,0,0,0,.866-0.852,0.759,0.759,0,0,0-.866-0.852H27.112v-1.74h2.851A0.759,0.759,0,0,0,30.829,9.7a0.759,0.759,0,0,0-.866-0.852H27.112V7.244h3.115a0.765,0.765,0,0,0,.866-0.864,0.754,0.754,0,0,0-.866-0.84H26.15a1.014,1.014,0,0,0-1.155,1.14v6.18A1.014,1.014,0,0,0,26.15,14h4.078Z"/>
</svg>
