<svg xmlns="http://www.w3.org/2000/svg" width="54" height="20" viewBox="0 0 54 20">
  <defs>
    <style>
      .cls-1 {
        fill: #6255f6;
      }

      .cls-2 {
        fill: #74eb8b;
        fill-rule: evenodd;
      }
    </style>
  </defs>
  <rect id="box" class="cls-1" width="54" height="20" rx="10" ry="10"/>
  <path id="단독구매" class="cls-2" d="M10.414,6.379h3.646v-1.2H9.02v4.9a13.213,13.213,0,0,0,6.38-.535v2.31h1.383V8.625h1.244l0.182-1.241H16.782v-2.5H15.4V8.315a10.618,10.618,0,0,1-4.986.652V6.379ZM9.867,11L9.7,12.711c-0.107,1.433.407,1.786,1.78,1.786H17l0.236-1.177-5.522-.011c-0.536,0-.6-0.139-0.558-0.7L11.336,11H9.867ZM26.5,8.689l0.182-1.166H20.8V6.283h5.65l0.182-1.23H19.284V8.689h2.884v0.8H18.447v1.294h8.685l0.236-1.294h-3.8v-0.8H26.5Zm-7.484,2.685v1.284H24.58c0.59,0,.633.214,0.568,0.791L25,14.776h1.48l0.171-1.369c0.225-1.84-.429-2.032-1.8-2.032H19.016Zm12.58-.567v3.872H33V10.807h3.6l0.236-1.23H35.391a7.586,7.586,0,0,0,.45-4.546h-7.28v1.23h5.908a6.077,6.077,0,0,1-.536,3.316H27.886v1.23H31.6Zm8.334,1.519a1.528,1.528,0,0,0,1.694-1.39,17.319,17.319,0,0,0-.332-5.765H37.453v7.156H39.93Zm2.445,1.957h1.34V9.3h0.74v5.2h1.372V4.881H44.454V8.058h-0.74V4.946h-1.34v9.338Zm-2.123-3.712a0.551,0.551,0,0,1-.59.524H38.868V6.39h1.244A16.193,16.193,0,0,1,40.251,10.572Z"/>
</svg>
