<svg width="24" height="24" viewBox="0 0 24 24" fill="none" xmlns="http://www.w3.org/2000/svg">
<g clip-path="url(#clip0_309_403)">
<rect width="24" height="24" rx="12" fill="white"/>
<rect width="24" height="24" fill="#8F86FF"/>
<path d="M13.7979 10.0414L13.4384 10.3211L13.8825 8.86487H14.9693C14.9824 8.86487 14.9947 8.86501 15.0061 8.86528L15.2214 9.57662C15.1386 9.56122 15.0542 9.55405 14.9693 9.55405C14.7513 9.55405 14.5411 9.60126 14.3431 9.69197C14.1607 9.77118 13.9778 9.89469 13.7979 10.0414ZM16.1104 10.6216C16.1104 10.5864 16.1089 10.5514 16.1059 10.5167C16.2694 10.5626 16.4421 10.5811 16.6158 10.5811C16.9295 10.5811 17.2363 10.52 17.4966 10.354C17.7828 10.1715 17.9514 9.88601 18.0423 9.57451L18.4186 8.32601C18.4731 8.15919 18.5 7.98674 18.5 7.81081C18.5 7.40001 18.3224 7.05008 17.9872 6.8112C17.6747 6.58144 17.2785 6.5 16.8635 6.5H10.3941C10.1163 6.5 9.84707 6.52628 9.62546 6.6112C9.37292 6.69871 9.15516 6.87967 9.05988 7.16688L9.05538 7.18042L9.05167 7.19419C9.03417 7.2591 9.0053 7.37011 9.0053 7.47297C9.0053 7.71822 9.13888 7.92607 9.23576 8.05585L9.24422 8.0672L9.25332 8.07804C9.29895 8.13245 9.31474 8.16437 9.3186 8.17391L9.32894 8.19948L9.33744 8.21526C9.3386 8.22137 9.34042 8.23463 9.34042 8.25676C9.34042 8.29109 9.33354 8.34538 9.30758 8.42364L9.30746 8.4236L9.30425 8.43403L7.51206 14.2584L7.51192 14.2583L7.50863 14.27C7.46168 14.4369 7.41437 14.4999 7.39975 14.5149C7.34702 14.5687 7.26002 14.6355 7.12395 14.7097L7.11654 14.7138L7.10927 14.7181C6.99697 14.7843 6.88166 14.8634 6.78787 14.9588C6.65058 15.0783 6.56757 15.2323 6.52827 15.3937C6.49056 15.5444 6.48484 15.7163 6.54682 15.8887C6.60953 16.0632 6.72537 16.1933 6.85446 16.2854L6.86442 16.2925L6.8747 16.2991C7.11959 16.4564 7.42309 16.5 7.71311 16.5H11.3703C11.6929 16.5 11.9981 16.4682 12.2432 16.3687C12.3907 16.3088 12.5359 16.2107 12.6415 16.0576C12.748 15.9033 12.7883 15.7309 12.7883 15.5676C12.7883 15.4084 12.745 15.2334 12.6235 15.0832C12.5397 14.9725 12.423 14.8738 12.3137 14.7909L12.3078 14.7864L12.3018 14.7822C12.2229 14.7259 12.169 14.6795 12.1336 14.6441C12.133 14.6384 12.1326 14.631 12.1326 14.6216C12.1326 14.5939 12.1342 14.5762 12.1354 14.5668C12.1355 14.5662 12.1356 14.5657 12.1356 14.5652L12.1365 14.5628L12.1402 14.5508L12.6443 12.8919H12.6884C12.6943 12.9019 12.7008 12.9134 12.7079 12.9265L12.7077 12.9265L12.7137 12.9371L12.976 13.3965L12.976 13.3965L12.9793 13.4021C13.2321 13.832 13.6285 14.0946 14.1388 14.0946C14.4327 14.0946 14.7106 14.0059 14.9416 13.8116C15.1646 13.6239 15.3085 13.3676 15.4004 13.0892L15.4005 13.0892L15.4029 13.0814L16.044 11.0273L16.0441 11.0274L16.0464 11.0194C16.0837 10.8926 16.1104 10.7572 16.1104 10.6216Z" fill="black" stroke="white"/>
</g>
<defs>
<clipPath id="clip0_309_403">
<rect width="24" height="24" rx="12" fill="white"/>
</clipPath>
</defs>
</svg>
