<svg width="24" height="24" viewBox="0 0 24 24" fill="none" xmlns="http://www.w3.org/2000/svg">
<g id="Frame">
<path id="Vector" d="M6 9.00008C6.23365 8.99962 6.46008 9.081 6.64 9.23008L12 13.7101L17.37 9.39008C17.4723 9.30701 17.59 9.24498 17.7163 9.20755C17.8427 9.17012 17.9752 9.15803 18.1062 9.17196C18.2372 9.1859 18.3642 9.2256 18.4798 9.28877C18.5955 9.35195 18.6975 9.43735 18.78 9.54008C18.8631 9.64237 18.9251 9.76006 18.9625 9.8864C19 10.0127 19.0121 10.1452 18.9981 10.2763C18.9842 10.4073 18.9445 10.5343 18.8813 10.6499C18.8181 10.7655 18.7327 10.8676 18.63 10.9501L12.63 15.7801C12.4511 15.9272 12.2266 16.0076 11.995 16.0076C11.7634 16.0076 11.5389 15.9272 11.36 15.7801L5.36 10.7801C5.25874 10.6961 5.17504 10.593 5.11368 10.4767C5.05233 10.3603 5.01453 10.233 5.00246 10.1021C4.99038 9.97107 5.00427 9.839 5.04331 9.7134C5.08236 9.58779 5.14579 9.47113 5.23 9.37008C5.32305 9.25537 5.44036 9.16269 5.5735 9.09872C5.70663 9.03474 5.85229 9.00106 6 9.00008Z" fill="#585858"/>
</g>
</svg>
