<svg width="32" height="32" viewBox="0 0 32 32" fill="none" xmlns="http://www.w3.org/2000/svg">
<path d="M20.12 12.8398V12.1198C20.12 11.2923 19.7913 10.4987 19.2062 9.91358C18.6211 9.32847 17.8275 8.99976 17 8.99976C16.1725 8.99976 15.3789 9.32847 14.7938 9.91358C14.2087 10.4987 13.88 11.2923 13.88 12.1198V18.1198L12 20.9998H20.12M11 15.2398H16.76" stroke="#585858" stroke-width="2" stroke-linecap="round" stroke-linejoin="round"/>
<path d="M16 29C23.1797 29 29 23.1797 29 16C29 8.8203 23.1797 3 16 3C8.8203 3 3 8.8203 3 16C3 23.1797 8.8203 29 16 29Z" stroke="#585858" stroke-width="2" stroke-linecap="round" stroke-linejoin="round"/>
</svg>
