<svg width="32" height="32" viewBox="0 0 32 32" fill="none" xmlns="http://www.w3.org/2000/svg">
<g id="Frame">
<g id="Group">
<path id="Vector" d="M16 29C23.1797 29 29 23.1797 29 16C29 8.8203 23.1797 3 16 3C8.8203 3 3 8.8203 3 16C3 23.1797 8.8203 29 16 29Z" stroke="#585858" stroke-width="2" stroke-linecap="round" stroke-linejoin="round"/>
<g id="W">
<path id="Vector_2" d="M10.229 11.4124C10.1892 11.2677 10.2982 11.1248 10.4483 11.1248V11.1248C10.5508 11.1248 10.6406 11.1933 10.6676 11.2922L13.17 20.4449C13.1733 20.457 13.1842 20.4653 13.1967 20.4653V20.4653C13.2089 20.4653 13.2197 20.4574 13.2232 20.4457L15.6163 12.6207C15.667 12.4551 15.8198 12.3419 15.993 12.3419V12.3419C16.1662 12.3419 16.3191 12.4551 16.3697 12.6207L18.7608 20.4392C18.7656 20.4547 18.7799 20.4653 18.7961 20.4653V20.4653C18.8128 20.4653 18.8274 20.4542 18.8317 20.4381L21.3173 11.2973C21.345 11.1955 21.4375 11.1248 21.543 11.1248V11.1248C21.6975 11.1248 21.8096 11.2718 21.7686 11.4207L19.1647 20.8944C19.1194 21.059 18.9697 21.1732 18.7989 21.1732V21.1732C18.6325 21.1732 18.4855 21.0647 18.4365 20.9057L16.0269 13.0974C16.0233 13.0856 16.0123 13.0775 16 13.0775V13.0775C15.9876 13.0775 15.9767 13.0856 15.973 13.0974L13.5635 20.9057C13.5144 21.0647 13.3674 21.1732 13.201 21.1732V21.1732C13.0302 21.1732 12.8805 21.059 12.8353 20.8944L10.229 11.4124Z" fill="#585858" stroke="#585858" stroke-width="1.6" stroke-linejoin="round"/>
</g>
</g>
</g>
</svg>
