<svg width="32" height="32" viewBox="0 0 32 32" fill="none" xmlns="http://www.w3.org/2000/svg">
<path d="M16 29C23.1797 29 29 23.1797 29 16C29 8.8203 23.1797 3 16 3C8.8203 3 3 8.8203 3 16C3 23.1797 8.8203 29 16 29Z" stroke="#585858" stroke-width="2" stroke-linecap="round" stroke-linejoin="round"/>
<path d="M19.1507 12.5807C19.011 12.5807 18.8962 12.4727 18.8751 12.3346C18.8135 11.931 18.6757 11.5664 18.4617 11.2409C18.2049 10.8505 17.8546 10.5456 17.4107 10.3263C16.9721 10.1071 16.4693 9.99741 15.9024 9.99741C15.3301 9.99741 14.814 10.1071 14.354 10.3263C13.8994 10.5456 13.5437 10.8478 13.287 11.2329C13.0302 11.6127 12.9019 12.0405 12.9019 12.5166C12.8965 13.0995 13.0971 13.5863 13.5036 13.9767C13.9154 14.3671 14.5171 14.6827 15.3087 14.9234L16.6084 15.3245C17.5925 15.624 18.336 16.0118 18.8387 16.4878C19.3415 16.9585 19.5929 17.5655 19.5929 18.309C19.5929 18.9187 19.4351 19.4643 19.1195 19.9456C18.804 20.427 18.36 20.8041 17.7877 21.0768C17.2155 21.3496 16.5549 21.486 15.8061 21.486C15.0948 21.486 14.4636 21.3603 13.9128 21.1089C13.3672 20.8576 12.9367 20.5099 12.6211 20.066C12.3618 19.6905 12.1978 19.2683 12.1291 18.7994C12.1068 18.6475 12.2295 18.5176 12.383 18.5176V18.5176C12.5219 18.5176 12.6358 18.6249 12.6586 18.7619C12.7229 19.1496 12.8682 19.4987 13.0944 19.8092C13.3672 20.1783 13.7363 20.4644 14.2016 20.6677C14.6669 20.8709 15.2017 20.9725 15.8061 20.9725C16.4479 20.9725 17.0149 20.8602 17.5069 20.6356C17.999 20.411 18.3814 20.0981 18.6542 19.6969C18.927 19.2904 19.0634 18.8278 19.0634 18.309C19.0634 17.7046 18.8548 17.2099 18.4376 16.8248C18.0258 16.4343 17.3679 16.1001 16.464 15.8219L15.1322 15.4208C14.2123 15.132 13.5223 14.7496 13.0623 14.2735C12.6024 13.7975 12.3724 13.2172 12.3724 12.5326C12.3724 11.9603 12.5248 11.4442 12.8297 10.9842C13.1399 10.5189 13.5624 10.1552 14.0973 9.89312C14.6375 9.63104 15.2392 9.5 15.9024 9.5C16.571 9.5 17.1646 9.63104 17.6834 9.89312C18.2076 10.1552 18.6221 10.5216 18.927 10.9922C19.183 11.383 19.3428 11.819 19.4065 12.3003C19.4265 12.452 19.3038 12.5807 19.1507 12.5807V12.5807Z" fill="#585858" stroke="#585858" stroke-width="1.6" stroke-linejoin="round"/>
</svg>
